<?xml version="1.0" encoding="UTF-8"?>
<svg id="Calque_2" data-name="Calque 2" xmlns="http://www.w3.org/2000/svg" viewBox="0 0 397.55 426.22">
  <defs>
    <style>
      .cls-1 {
        fill: #00d62d;
      }

      .cls-1, .cls-2, .cls-3, .cls-4, .cls-5 {
        stroke-width: 0px;
      }

      .cls-2 {
        fill: #fff933;
      }

      .cls-4 {
        fill: #006b91;
      }

      .cls-5 {
        fill: #fff200;
      }

      .cls-6 {
        stroke-width: 7px;
      }

      .cls-6, .cls-7 {
        fill: none;
        stroke: #000;
        stroke-linecap: round;
        stroke-linejoin: round;
      }

      .cls-7 {
        stroke-width: 8px;
      }
    </style>
  </defs>
  <g id="Calque_6" data-name="Calque 6">
    <g>
      <g>
        <path class="cls-4" d="M199.23,4c267.58,48.51,193.61,223.36,154.29,238.68,0,0,37.27,89.87-9.11,111.32-23.41,70.98-148.28,68.2-148.28,68.2,0,0-120.17,3.06-143.57-67.92-46.39-21.45-9.11-111.32-9.11-111.32C4.13,227.64-68.34,52.51,199.23,4ZM196.13,402.28s196.71-1.81,130.32-114.15c23.66-57.02-25.7-97.88-25.7-97.88,0,0-9.64-37.16-104.62-34.1-94.98-3.06-99.92,34.39-99.92,34.39,0,0-49.36,40.85-25.7,97.87-66.38,112.34,125.62,113.87,125.62,113.87ZM196.13,120.41c59.49,0,39.06-74.04,0-74.04s-59.49,74.04,0,74.04Z"/>
        <path class="cls-3" d="M278.58,238.68c-13.01.16-26.01.32-39.02.49v.85c-1.75,7.9,1.82,16.72,8.58,21.17,6.76,4.45,16.27,4.24,22.83-.51s9.74-13.72,7.62-21.53v-.47ZM121.6,238.36v.47c-2.12,7.81,1.05,16.78,7.61,21.53s16.07,4.96,22.83.51c6.77-4.45,10.34-13.27,8.57-21.17v-.85c-13-.17-26-.33-39.01-.49ZM326.45,288.13c66.39,112.34-130.32,114.15-130.32,114.15,0,0-192-1.53-125.62-113.87-23.66-57.02,25.7-97.87,25.7-97.87,0,0,4.94-37.45,99.92-34.39,94.98-3.06,104.62,34.1,104.62,34.1,0,0,49.36,40.86,25.7,97.88Z"/>
        <path class="cls-2" d="M278.59,239.15c2.12,7.81-1.06,16.78-7.62,21.53s-16.07,4.96-22.83.51c-6.76-4.45-10.33-13.27-8.57-21.17v-.85c13-.17,26-.33,39.01-.49v.47Z"/>
        <path class="cls-2" d="M195.58,68.39c7.52,0,13.62,6.09,13.62,13.62s-6.1,13.61-13.62,13.61-13.61-6.09-13.61-13.61,6.09-13.62,13.61-13.62Z"/>
        <path class="cls-1" d="M196.13,46.37c39.06,0,59.49,74.04,0,74.04s-39.06-74.04,0-74.04ZM209.2,82.01c0-7.53-6.1-13.62-13.62-13.62s-13.61,6.09-13.61,13.62,6.09,13.61,13.61,13.61,13.62-6.09,13.62-13.61Z"/>
        <path class="cls-2" d="M160.61,239.7c1.77,7.9-1.8,16.72-8.57,21.17-6.76,4.45-16.27,4.24-22.83-.51s-9.73-13.72-7.62-21.53v-.47c13.02.16,26.02.32,39.03.49v.85Z"/>
      </g>
      <g>
        <path class="cls-7" d="M196.13,402.28s-192-1.53-125.62-113.87c-23.66-57.02,25.7-97.87,25.7-97.87,0,0,4.94-37.45,99.92-34.39"/>
        <path class="cls-7" d="M196.13,422.2s-120.17,3.06-143.57-67.92c-46.39-21.45-9.11-111.32-9.11-111.32C4.13,227.64-68.34,52.51,199.23,4"/>
        <path class="cls-7" d="M196.13,46.37c-39.06,0-59.49,74.04,0,74.04"/>
        <path class="cls-7" d="M196.13,402.28s196.71-1.81,130.32-114.15c23.66-57.02-25.7-97.88-25.7-97.88,0,0-9.64-37.16-104.62-34.1"/>
        <path class="cls-7" d="M196.13,422.2s124.87,2.78,148.28-68.2c46.38-21.45,9.11-111.32,9.11-111.32,39.32-15.32,113.29-190.17-154.29-238.68"/>
        <path class="cls-7" d="M196.13,46.37c39.06,0,59.49,74.04,0,74.04"/>
        <path class="cls-6" d="M108.47,238.2c4.38.05,8.75.11,13.13.16,13.01.16,26.01.32,39.02.49,7.64.09,15.27.19,22.91.28"/>
        <path class="cls-6" d="M121.59,238.83c-2.11,7.81,1.06,16.78,7.62,21.53s16.07,4.96,22.83.51c6.77-4.45,10.34-13.27,8.57-21.17"/>
        <path class="cls-6" d="M291.71,238.52c-4.38.05-8.75.11-13.13.16-13.01.16-26.01.32-39.02.49-7.64.09-15.27.19-22.91.28"/>
        <path class="cls-6" d="M278.59,239.15c2.12,7.81-1.06,16.78-7.62,21.53s-16.07,4.96-22.83.51c-6.76-4.45-10.33-13.27-8.57-21.17"/>
        <path class="cls-6" d="M209.2,82.01c0,7.52-6.1,13.61-13.62,13.61s-13.61-6.09-13.61-13.61,6.09-13.62,13.61-13.62,13.62,6.09,13.62,13.62Z"/>
      </g>
    </g>
    <g>
      <path class="cls-5" d="M6.35,138.08c8.4,20.74,44.6-10.2,58.86-27.44s20.28-41.01,15.93-62.96c0,0-69.19,24.66-74.8,90.4Z"/>
      <path class="cls-3" d="M4.9,138.48c6.98,16.88,28.31,2.83,37.46-4.1,7.29-5.52,14.09-11.74,20.26-18.48,7.54-8.24,13.43-17.63,17.09-28.22,4.47-12.93,5.5-26.97,2.88-40.4-.15-.76-1.12-1.31-1.85-1.05-2.49.89-4.91,1.98-7.3,3.1-5.85,2.73-11.51,5.89-16.94,9.4-7.55,4.88-14.69,10.45-21.12,16.73-7.42,7.24-13.93,15.47-18.97,24.54-5.74,10.32-9.49,21.64-11.05,33.34-.21,1.58-.38,3.16-.52,4.75-.17,1.92,2.83,1.91,3,0,1.01-11.64,4.21-23.05,9.51-33.47,4.65-9.15,10.79-17.46,17.93-24.81,6.23-6.41,13.17-12.09,20.58-17.07,5.58-3.74,11.42-7.11,17.46-10.04,1.04-.51,2.1-1,3.15-1.48.45-.2.91-.41,1.36-.6.19-.08.38-.17.57-.25.1-.04.2-.08.29-.12.21-.09-.32.13.04-.02.84-.35,1.87-.59,2.66-1.06.04-.02.08-.03.12-.04l-1.85-1.05c4.35,22.29-2.13,46.02-16.96,63.17-5.53,6.4-11.7,12.29-18.24,17.65s-13.26,10.28-20.98,13.09c-2.99,1.09-6.47,1.97-9.55,1.27-2.92-.66-5-2.75-6.17-5.57-.73-1.76-3.63-.99-2.89.8Z"/>
    </g>
    <path class="cls-3" d="M303.6,94.07c6.15,8.67,12.29,17.34,18.44,26,1.11,1.56,3.71.07,2.59-1.51-6.15-8.67-12.29-17.34-18.44-26-1.11-1.56-3.71-.07-2.59,1.51h0Z"/>
    <path class="cls-3" d="M303.4,114.04c6.77-6.5,13.55-12.99,20.32-19.49,1.4-1.34-.73-3.46-2.12-2.12-6.77,6.5-13.55,12.99-20.32,19.49-1.4,1.34.73,3.46,2.12,2.12h0Z"/>
    <path class="cls-3" d="M44.62,116.38c-.25,7.08,1.64,14.14,5.39,20.15,1.02,1.63,3.62.13,2.59-1.51-3.49-5.58-5.21-12.05-4.98-18.63.07-1.93-2.93-1.93-3,0h0Z"/>
    <path class="cls-3" d="M63.03,88.55c9.53.17,19.06.34,28.6.51,1.93.03,1.93-2.97,0-3-9.53-.17-19.06-.34-28.6-.51-1.93-.03-1.93,2.97,0,3h0Z"/>
    <g>
      <path class="cls-5" d="M374.02,219.07c-18.82-1.91-9.15-36.97-7.06-55.77.81-7.28,2.34-14.63,5.98-20.99s9.69-11.64,16.89-12.97c0,0,13.11,63-15.81,89.73Z"/>
      <path class="cls-3" d="M374.02,217.57c-11.33-1.24-10.26-17.04-9.57-25.16.55-6.52,1.63-12.97,2.64-19.42,1.17-7.42,1.6-15.05,3.85-22.24,2.87-9.2,9.33-18.01,19.29-19.96l-1.85-1.05c1.54,7.41,2.24,14.77,2.66,22.4.81,14.85.04,30.24-4.8,44.41-2.75,8.05-7.01,15.63-13.28,21.46-1.42,1.32.71,3.44,2.12,2.12,11.75-10.93,16.53-27.16,18.33-42.64,1.56-13.4,1-27.04-.81-40.38-.37-2.73-.77-5.47-1.33-8.17-.17-.84-1.09-1.2-1.85-1.05-9.04,1.77-15.96,9-19.56,17.18s-4.05,16.53-5.35,25.02c-1.06,6.88-2.25,13.74-2.93,20.67-.6,6.2-.98,12.77.62,18.86.72,2.75,1.95,5.46,3.99,7.48s4.88,3.14,7.82,3.46c1.92.21,1.9-2.79,0-3Z"/>
    </g>
    <path class="cls-3" d="M364.55,135.58c4.65,5.05,9.3,10.1,13.95,15.16,1.31,1.42,3.43-.7,2.12-2.12-4.65-5.05-9.3-10.1-13.95-15.16-1.31-1.42-3.43.7-2.12,2.12h0Z"/>
    <path class="cls-3" d="M356.11,210.17c5.26-3.62,10.89-6.71,16.8-9.13.75-.31,1.28-1,1.05-1.85-.19-.71-1.09-1.36-1.85-1.05-6.16,2.53-12.03,5.66-17.52,9.43-1.58,1.09-.08,3.69,1.51,2.59h0Z"/>
  </g>
</svg>