<?xml version="1.0" encoding="UTF-8"?>
<svg id="Calque_2" data-name="Calque 2" xmlns="http://www.w3.org/2000/svg" viewBox="0 0 180.42 241.7">
  <defs>
    <style>
      .cls-1 {
        fill: none;
        stroke: #000;
        stroke-miterlimit: 10;
        stroke-width: 4px;
      }

      .cls-2, .cls-3 {
        stroke-width: 0px;
      }

      .cls-3 {
        fill: #878787;
      }
    </style>
  </defs>
  <g id="Calque_2-2" data-name="Calque 2">
    <g>
      <g>
        <path class="cls-3" d="M162.61,101.44s0,.01,0,.02c5.84,5.87,10.61,13.09,13.08,18.4,3.33,7.15,2.41,14.68,2.71,23.41.68,19.65-23.08,57.22-35.28,61.73l-.16-.09c3.52-6.29,6.42-12.99,8.92-19.7,4.87-13.12,8.53-27.2,6.34-41.02s-11.45-27.27-25-30.77c-14.93-3.86-30.22,4.8-45.64,4.89-8.12.04-16.04-2.29-24-3.89s-16.44-2.44-24.02.47c-11.76,4.53-18.69,17.4-19.58,29.97s3.2,24.93,7.85,36.64c3.6,9.06,7.66,18.1,12.83,26.34l-.31.19c-10.25-6.38-16.67-17.26-22.69-27.72-5.62-9.77-11.31-19.69-14.07-30.62-2.75-10.93-2.25-23.18,3.9-32.62,1.79-2.74,3.98-5.14,6.38-7.36l-.42-.45c-1.1-9.26,4.11-19.59,11.11-25.76.27-.24.54-.47.82-.69l-.73-.86c-2.95-12.41,2.66-26.38,13.37-33.3,1.26-.81,2.56-1.53,3.9-2.16l-.5-1.06c-1.29-4.04-1.07-9.89,1.05-13.56,2.11-3.67,5.27-6.63,8.53-9.33,10.64-8.79,23.12-15.48,36.56-18.6,13.43-3.12,27.83-2.58,40.7,2.37,17.07,6.57,30.31,20.17,42.97,33.38,2.51,2.62,5.27,6.17,2.72,9.62-1.09,1.47-2.84,2.3-4.66,2.46-16.07,1.44-33.14-4.66-45.3-15.28-.07-.05-.16.03-.11.1,1.11,1.51,3.5,4.05,3.24,8.24-.09,1.37-4.95,2.07-6.42,2.44,1.91,1.19,3.76,2.64,5.54,4.44,7.69,7.77,15.42,16.71,18,27.33,7.64,5.68,13.96,13.13,18.36,22.4Z"/>
        <path class="cls-2" d="M158.23,144.19c2.19,13.82-1.47,27.9-6.34,41.02-2.5,6.71-5.4,13.41-8.92,19.7-5.51,9.9-12.54,18.79-21.81,25.17-7.66,5.27-16.64,8.6-25.88,9.62-15.68-.4-31.28-5.37-42.75-16.79-4.56-4.54-8.46-9.63-11.86-15.07-5.17-8.24-9.23-17.28-12.83-26.34-4.65-11.71-8.74-24.07-7.85-36.64s7.82-25.44,19.58-29.97c7.58-2.91,16.06-2.07,24.02-.47s15.88,3.93,24,3.89c15.42-.09,30.71-8.75,45.64-4.89,13.55,3.5,22.81,16.95,25,30.77ZM99.47,187.67c10.39-4.99,20.79-9.99,31.18-14.98-1.37-6.98-3.42-15.18-9.9-18.12-4.99-2.26-11.16-.94-15.38,2.55-4.23,3.49-6.62,8.85-7.34,14.28s.1,10.96,1.44,16.27ZM76.18,187.6c1.34-5.31,2.17-10.84,1.45-16.27s-3.12-10.79-7.34-14.28c-4.23-3.49-10.4-4.81-15.39-2.54-6.48,2.93-8.53,11.13-9.9,18.11,10.4,4.99,20.79,9.99,31.18,14.98Z"/>
      </g>
      <g>
        <path class="cls-1" d="M95.28,239.7c9.24-1.02,18.22-4.35,25.88-9.62,9.27-6.38,16.3-15.27,21.81-25.17,3.52-6.29,6.42-12.99,8.92-19.7,4.87-13.12,8.53-27.2,6.34-41.02s-11.45-27.27-25-30.77c-14.93-3.86-30.22,4.8-45.64,4.89-8.12.04-16.04-2.29-24-3.89s-16.44-2.44-24.02.47c-11.76,4.53-18.69,17.4-19.58,29.97s3.2,24.93,7.85,36.64c3.6,9.06,7.66,18.1,12.83,26.34,3.4,5.44,7.3,10.53,11.86,15.07,11.47,11.42,27.07,16.39,42.75,16.79"/>
        <path class="cls-1" d="M162.61,101.44c-2.33-2.34-4.83-4.46-7.42-6.16-15.68-10.29-35.42-14.2-53.85-10.67"/>
        <path class="cls-1" d="M143.13,205c12.2-4.51,35.96-42.08,35.28-61.73-.3-8.73.62-16.26-2.71-23.41-2.47-5.31-7.24-12.53-13.08-18.4"/>
        <path class="cls-1" d="M162.62,101.46s0-.01,0-.02c-4.4-9.27-10.72-16.72-18.36-22.4-11.27-8.4-25.42-12.95-40.54-13.81"/>
        <path class="cls-1" d="M97.69,41.22c8.51,1.02,16.17,1.81,23.02,6.05,1.91,1.19,3.76,2.64,5.54,4.44,7.69,7.77,15.42,16.71,18,27.33"/>
        <path class="cls-1" d="M120.66,47.28s.03-.01.05-.01c1.47-.37,6.33-1.07,6.42-2.44.26-4.19-2.13-6.73-3.24-8.24-.05-.07.04-.15.11-.1,12.16,10.62,29.23,16.72,45.3,15.28,1.82-.16,3.57-.99,4.66-2.46,2.55-3.45-.21-7-2.72-9.62-12.66-13.21-25.9-26.81-42.97-33.38-12.87-4.95-27.27-5.49-40.7-2.37-13.44,3.12-25.92,9.81-36.56,18.6-3.26,2.7-6.42,5.66-8.53,9.33-2.12,3.67-2.34,9.52-1.05,13.56"/>
        <path class="cls-1" d="M40.36,208.03c-10.25-6.38-16.67-17.26-22.69-27.72-5.62-9.77-11.31-19.69-14.07-30.62-2.75-10.93-2.25-23.18,3.9-32.62,1.79-2.74,3.98-5.14,6.38-7.36,2.87-2.66,6.03-5.04,9.16-7.38,11.15-8.34,23.4-17.06,37.32-16.91"/>
        <path class="cls-1" d="M13.46,109.26c-1.1-9.26,4.11-19.59,11.11-25.76.27-.24.54-.47.82-.69,6.85-5.77,15.26-9.36,23.52-12.86"/>
        <path class="cls-1" d="M24.66,81.95c-2.95-12.41,2.66-26.38,13.37-33.3,1.26-.81,2.56-1.53,3.9-2.16,7.39-3.48,15.89-4.42,24.1-5.27"/>
        <path class="cls-1" d="M45,172.62c10.4,4.99,20.79,9.99,31.18,14.98,1.34-5.31,2.17-10.84,1.45-16.27s-3.12-10.79-7.34-14.28c-4.23-3.49-10.4-4.81-15.39-2.54-6.48,2.93-8.53,11.13-9.9,18.11Z"/>
        <path class="cls-1" d="M130.65,172.69c-10.39,4.99-20.79,9.99-31.18,14.98-1.34-5.31-2.16-10.84-1.44-16.27s3.11-10.79,7.34-14.28c4.22-3.49,10.39-4.81,15.38-2.55,6.48,2.94,8.53,11.14,9.9,18.12Z"/>
      </g>
    </g>
  </g>
</svg>