<?xml version="1.0" encoding="UTF-8"?>
<svg id="Calque_2" data-name="Calque 2" xmlns="http://www.w3.org/2000/svg" viewBox="0 0 413.5 364.13">
  <defs>
    <style>
      .cls-1, .cls-2, .cls-3, .cls-4 {
        stroke-width: 0px;
      }

      .cls-2 {
        fill: #0fc400;
      }

      .cls-5 {
        fill: none;
        stroke: #000;
        stroke-linecap: round;
        stroke-linejoin: round;
        stroke-width: 8px;
      }

      .cls-3 {
        fill: #d3d300;
      }

      .cls-4 {
        fill: #c40070;
      }
    </style>
  </defs>
  <g id="Calque_4" data-name="Calque 4">
    <g>
      <g>
        <path class="cls-4" d="M233.53,72.01c-.07.23-.15.45-.25.67.09-.22.17-.44.25-.67Z"/>
        <path class="cls-4" d="M409.28,243.53c2.27,23.95-23.35,60.02-45.24,81.82h-.01s-64.23,5.2-82.61-13.18c-4.56,19.24-54.41,43.43-55.25,43.84h-.01l-.33.03c-5.06.47-10.12.95-15.17,1.43l-5.27.49-18.14-1.71s-50.65-24.43-55.25-43.83c-18.38,18.38-82.62,13.17-82.62,13.17-30.72-30.59-68.79-89.28-26.81-103.14C71.05,206.45,75.88,87.85,206.55,4.25l.31-.25c2.02,1.29,4.03,2.61,6.03,3.94,25.24,16.88,48.26,36.99,68.2,59.89.76.89,1.53,1.77,2.29,2.66.78.93,1.57,1.85,2.35,2.79,1.46,1.76,2.92,3.54,4.35,5.34,24.56,30.75,42.04,65.39,61.15,99.55l.75,1.35c.05.08.09.17.14.25,7.17,12.77,15.12,27.89,27.58,36.49,3.48,2.62,7.16,4.63,11.14,5.94.57.19,1.12.38,1.65.58,4.91,2.23,9.55,4.77,12.82,9.53,2.24,3.26,3.45,6.97,3.93,10.82.01.13.03.27.04.4ZM206.55,106.63c-62.29-39.32,70.49,75.29-90.38,79.15-68.43,1.64,10.64,167.55,90.67,94.68,79.94,72.26,158.77-93.29,90.4-94.93-160.86-3.86-28.08-118.47-90.38-79.15l-.31.25ZM181.8,76.32c5.34,7.08,17.25,6.29,25.06,3.71l1.75-.17c9.19,2.23,20.84,2.21,24.67-7.18.1-.22.18-.44.25-.67.16-.46.31-.93.43-1.43,1.75-6.96.83-15.49-3.76-21.2-3.59-4.46-8.87-6.77-13.66-9.65-5.44-3.25-9.22-7.47-9.64-13.82l-.24.02c.79,10.71-11.69,13.71-19.45,19.53-10,7-11,20-6,30,.19.3.38.59.59.86Z"/>
        <path class="cls-2" d="M233.96,70.58c-.12.5-.27.97-.43,1.43-.08.23-.16.45-.25.67-3.83,9.39-15.48,9.41-24.67,7.18l-1.75.17c-7.81,2.58-19.72,3.37-25.06-3.71-.21-.27-.4-.56-.59-.86-5-10-4-23,6-30,7.76-5.82,20.24-8.82,19.45-19.53l.24-.02c.42,6.35,4.2,10.57,9.64,13.82,4.79,2.88,10.07,5.19,13.66,9.65,4.59,5.71,5.51,14.24,3.76,21.2Z"/>
        <path class="cls-3" d="M364.03,325.34h.01c-5.9,5.87-11.52,10.71-16.26,13.98-.84.54-1.68,1.06-2.54,1.56-6.74,3.94-13.79,5.12-21.22,5.9-1.15.11-2.3.22-3.46.33-.58.05-1.17.11-1.75.16-5.16.48-10.31.97-15.47,1.46s-10.31.97-15.47,1.46c-20.57,1.94-41.13,3.88-61.7,5.82.84-.41,50.69-24.6,55.25-43.84,18.38,18.38,82.61,13.17,82.61,13.17Z"/>
        <path class="cls-1" d="M206.84,280.46c-80.03,72.87-159.1-93.04-90.67-94.68,160.87-3.86,28.09-118.47,90.38-79.15l.31-.25c62.3-39.32-70.48,75.29,90.38,79.15,68.37,1.64-10.46,167.19-90.4,94.93ZM272.05,243.03c3.7-3.37,6.05-8.31,6.05-13.84,0-10.15-7.89-18.38-17.62-18.38s-17.62,8.23-17.62,18.38c0,5.45,2.29,10.34,5.9,13.7,3.51-4.96,6.42-12.03,13.56-10.1,4.57,1.24,6.93,6.29,9.73,10.24ZM164.65,243.14c3.62-3.37,5.9-8.25,5.9-13.7,0-10.15-7.88-18.39-17.61-18.39s-17.62,8.24-17.62,18.39c0,5.53,2.35,10.47,6.05,13.84,2.8-3.96,5.16-9,9.73-10.24,7.13-1.93,10.05,5.14,13.55,10.1Z"/>
        <path class="cls-3" d="M187.25,356.25l-103.42-9.75c-4.9-.46-9.65-1.92-13.97-4.28-5.42-2.96-12.71-8.9-20.48-16.63,0,0,64.24,5.21,82.62-13.17,4.6,19.4,55.25,43.83,55.25,43.83Z"/>
      </g>
      <g>
        <path class="cls-5" d="M205.32,80.78c-7.81,2.58-18.29,2.68-23.52-4.46"/>
        <path class="cls-5" d="M206.55,4.25C75.88,87.85,71.05,206.45,22.57,222.45c-41.98,13.86-3.91,72.55,26.81,103.14,7.77,7.73,15.06,13.67,20.48,16.63,4.32,2.36,9.07,3.82,13.97,4.28l103.42,9.75,18.14,1.71,22.96,2.17"/>
        <path class="cls-5" d="M206.55,106.63c-62.29-39.32,70.49,75.29-90.38,79.15-68.43,1.64,10.64,167.55,90.67,94.68,7.2-6.55,14.4-15.04,21.51-25.75"/>
        <path class="cls-5" d="M206.86,80.03c-7.81,2.58-19.72,3.37-25.06-3.71-.21-.27-.4-.56-.59-.86-5-10-4-23,6-30,7.76-5.82,20.24-8.82,19.45-19.53-.03-.33-.06-.66-.11-1"/>
        <path class="cls-5" d="M49.38,325.59s64.24,5.21,82.62-13.17c4.6,19.4,55.25,43.83,55.25,43.83"/>
        <path class="cls-5" d="M141.37,243.28c2.8-3.96,5.16-9,9.73-10.24,7.13-1.93,10.05,5.14,13.55,10.1,3.62-3.37,5.9-8.25,5.9-13.7,0-10.15-7.88-18.39-17.61-18.39s-17.62,8.24-17.62,18.39c0,5.53,2.35,10.47,6.05,13.84Z"/>
        <polyline class="cls-5" points="210.66 357.47 205.39 357.96 185.07 359.88"/>
        <line class="cls-5" x1="320.56" y1="347.11" x2="303.34" y2="348.73"/>
        <path class="cls-5" d="M352.12,179.77c9.04,16.11,17.47,28.89,27.58,36.49,3.48,2.62,7.16,4.63,11.14,5.94.57.19,1.12.38,1.65.58,10.76,4.07,15.77,11.33,16.75,20.35.01.13.03.27.04.4,2.27,23.95-23.35,60.02-45.24,81.82-5.9,5.86-11.52,10.7-16.26,13.97-1.5,1.05-2.92,1.94-4.22,2.65-4.32,2.36-9.07,3.82-13.97,4.29l-5.57.52"/>
        <path class="cls-5" d="M285.73,73.28c31.91,38.3,49.73,76.52,65.5,104.89"/>
        <path class="cls-5" d="M212.89,7.94c28.22,18.84,50.33,39.31,68.2,59.89.78.89,1.54,1.78,2.29,2.66"/>
        <path class="cls-5" d="M209.38,80.87c9.19,2.23,20.17,1.33,23.9-8.19.1-.22.18-.44.25-.67"/>
        <path class="cls-5" d="M226.16,356.01l-.33.03c-5.06.47-10.12.95-15.17,1.43"/>
        <path class="cls-5" d="M206.86,4c2.02,1.29,4.03,2.61,6.03,3.94,25.24,16.88,48.26,36.99,68.2,59.89.76.89,1.53,1.77,2.29,2.66.78.93,1.57,1.85,2.35,2.79,1.46,1.76,2.92,3.54,4.35,5.34,24.56,30.75,42.04,65.39,61.15,99.55l.75,1.35c.05.08.09.17.14.25,7.17,12.77,15.12,27.89,27.58,36.49,1.6,1.12,3.27,2.12,5.02,2.99,2.56,1.28,5.2,2.36,7.77,3.53,4.91,2.23,9.55,4.77,12.82,9.53,2.24,3.26,3.45,6.97,3.93,10.82.02.13.04.27.04.4.47,4.05.14,8.23-.62,12.2-3.27,17.19-14.21,32.76-24.47,46.55-10.03,13.47-22.02,27.84-36.41,37.04-.84.54-1.68,1.06-2.54,1.56-6.74,3.94-13.79,5.12-21.22,5.9-1.15.11-2.3.22-3.46.33-.58.05-1.17.11-1.75.16-5.16.48-10.31.97-15.47,1.46s-10.31.97-15.47,1.46c-20.57,1.94-41.13,3.88-61.7,5.82"/>
        <path class="cls-5" d="M206.86,106.38c62.3-39.32-70.48,75.29,90.38,79.15,68.37,1.64-10.46,167.19-90.4,94.93-7.28-6.59-14.58-15.15-21.77-25.99"/>
        <path class="cls-5" d="M208.61,79.86c9.19,2.23,20.84,2.21,24.67-7.18.09-.22.17-.44.25-.67.16-.46.31-.93.43-1.43,1.75-6.96.83-15.49-3.76-21.2-3.59-4.46-8.87-6.77-13.66-9.65-5.44-3.25-9.22-7.47-9.64-13.82-.03-.4-.04-.81-.04-1.23"/>
        <path class="cls-5" d="M364.03,325.34s-64.23,5.21-82.61-13.17c-4.56,19.24-54.41,43.43-55.25,43.84h-.01"/>
        <path class="cls-5" d="M272.05,243.03c-2.8-3.95-5.16-9-9.73-10.24-7.14-1.93-10.05,5.14-13.56,10.1-3.61-3.36-5.9-8.25-5.9-13.7,0-10.15,7.89-18.38,17.62-18.38s17.62,8.23,17.62,18.38c0,5.53-2.35,10.47-6.05,13.84Z"/>
      </g>
    </g>
  </g>
</svg>