<?xml version="1.0" encoding="UTF-8"?>
<svg id="Calque_2" data-name="Calque 2" xmlns="http://www.w3.org/2000/svg" viewBox="0 0 202.45 150.71">
  <defs>
    <style>
      .cls-1 {
        stroke-width: 4px;
      }

      .cls-1, .cls-2 {
        fill: none;
        stroke: #000;
        stroke-miterlimit: 10;
      }

      .cls-3, .cls-4 {
        stroke-width: 0px;
      }

      .cls-4 {
        fill: #39a844;
      }

      .cls-2 {
        stroke-width: 5px;
      }
    </style>
  </defs>
  <g id="Calque_5" data-name="Calque 5">
    <g>
      <g>
        <path class="cls-3" d="M107.5,81.13c2.56,3.06,2.78-7.43-.06-10.24-2.84-2.8-7.42-2.78-10.23.06-2.81,2.85-2.58,13.23.06,10.24,1.01-1.15,4.2-7.29,10.23-.06ZM147.6,91.88c1.7,30.98-67.92,45.87-100.6,37.02-32.68-8.85-11.83-59.75,42.98-98.55,0,0,55.92,30.55,57.62,61.53ZM68.53,80.89c0-4-3.23-7.24-7.23-7.24s-7.23,3.24-7.23,7.24,3.23,7.23,7.23,7.23,7.23-3.24,7.23-7.23Z"/>
        <path class="cls-4" d="M199.77,88.64c6.81,52.09-182.47,78.3-195.75,44.26C-9.25,98.86,68.02.81,102.07,2.52c103.83,55.14,97.7,86.12,97.7,86.12ZM47,128.9c32.68,8.85,102.3-6.04,100.6-37.02-1.7-30.98-57.62-61.53-57.62-61.53C35.17,69.15,14.32,120.05,47,128.9Z"/>
      </g>
      <g>
        <path class="cls-2" d="M89.98,30.35s55.92,30.55,57.62,61.53c1.7,30.98-67.92,45.87-100.6,37.02-32.68-8.85-11.83-59.75,42.98-98.55Z"/>
        <path class="cls-2" d="M199.77,88.64s6.13-30.98-97.7-86.12C68.02.81-9.25,98.86,4.02,132.9c13.28,34.04,202.56,7.83,195.75-44.26Z"/>
        <path class="cls-1" d="M68.53,80.89c0,3.99-3.23,7.23-7.23,7.23s-7.23-3.24-7.23-7.23,3.23-7.24,7.23-7.24,7.23,3.24,7.23,7.24Z"/>
        <path class="cls-1" d="M107.44,70.89c2.84,2.81,2.62,13.3.06,10.24-6.03-7.23-9.22-1.09-10.23.06-2.64,2.99-2.87-7.39-.06-10.24,2.81-2.84,7.39-2.86,10.23-.06Z"/>
      </g>
    </g>
  </g>
</svg>