<?xml version="1.0" encoding="UTF-8"?>
<svg id="Calque_2" data-name="Calque 2" xmlns="http://www.w3.org/2000/svg" viewBox="0 0 202.45 150.71">
  <defs>
    <style>
      .cls-1 {
        stroke-width: 4px;
      }

      .cls-1, .cls-2 {
        fill: none;
        stroke: #000;
        stroke-miterlimit: 10;
      }

      .cls-3 {
        fill: #3953aa;
      }

      .cls-3, .cls-4 {
        stroke-width: 0px;
      }

      .cls-2 {
        stroke-width: 5px;
      }
    </style>
  </defs>
  <g id="Calque_5" data-name="Calque 5">
    <g>
      <g>
        <path class="cls-3" d="M199.77,88.64c6.81,52.09-182.47,78.3-195.75,44.26C-9.25,98.86,68.02.81,102.07,2.52c103.83,55.14,97.7,86.12,97.7,86.12ZM87.09,125.41c32.68,8.85,84.76-14.98,83.06-45.96-1.7-30.98-56.51-46.3-56.51-46.3-54.81,38.81-59.23,83.41-26.55,92.26Z"/>
        <path class="cls-4" d="M170.15,79.45c1.7,30.98-50.38,54.81-83.06,45.96-32.68-8.85-28.26-53.45,26.55-92.26,0,0,54.81,15.32,56.51,46.3ZM140.28,70.8c0-4-3.24-7.24-7.24-7.24s-7.23,3.24-7.23,7.24,3.24,7.23,7.23,7.23,7.24-3.24,7.24-7.23ZM104.45,79.54c0-4-3.24-7.24-7.23-7.24s-7.24,3.24-7.24,7.24,3.24,7.23,7.24,7.23,7.23-3.24,7.23-7.23Z"/>
      </g>
      <g>
        <path class="cls-2" d="M113.64,33.15s54.81,15.32,56.51,46.3c1.7,30.98-50.38,54.81-83.06,45.96-32.68-8.85-28.26-53.45,26.55-92.26Z"/>
        <path class="cls-2" d="M199.77,88.64s6.13-30.98-97.7-86.12C68.02.81-9.25,98.86,4.02,132.9c13.28,34.04,202.56,7.83,195.75-44.26Z"/>
        <path class="cls-1" d="M104.45,79.54c0,3.99-3.24,7.23-7.23,7.23s-7.24-3.24-7.24-7.23,3.24-7.24,7.24-7.24,7.23,3.24,7.23,7.24Z"/>
        <path class="cls-1" d="M140.28,70.8c0,3.99-3.24,7.23-7.24,7.23s-7.23-3.24-7.23-7.23,3.24-7.24,7.23-7.24,7.24,3.24,7.24,7.24Z"/>
      </g>
    </g>
  </g>
</svg>