<?xml version="1.0" encoding="UTF-8"?>
<svg id="Calque_2" data-name="Calque 2" xmlns="http://www.w3.org/2000/svg" viewBox="0 0 155.92 177.76">
  <defs>
    <style>
      .cls-1 {
        stroke: #df0;
        stroke-miterlimit: 10;
        stroke-width: 9px;
      }

      .cls-1, .cls-2, .cls-3 {
        fill: none;
      }

      .cls-2 {
        stroke: #cdd800;
        stroke-width: 7px;
      }

      .cls-2, .cls-3 {
        stroke-linecap: round;
        stroke-linejoin: round;
      }

      .cls-4 {
        fill: #fff;
        stroke-width: 0px;
      }

      .cls-3 {
        stroke: #000;
        stroke-width: 8px;
      }
    </style>
  </defs>
  <g id="Calque_4" data-name="Calque 4">
    <g>
      <g>
        <path class="cls-4" d="M80.48,95.47c-.51-4.78.78-10.62,6.87-17.31,3.19-3.52,7.56-5.76,12.26-6.45,25.18-3.7,38.36-4.39,42.14,4.22l.3-.06c2.51,12.61,5.15,26.14,7.62,39.34,8.51,45.62-9.87,47.32-9.87,47.32,0,0-95.86,13.54-101.79,10.89-13.91-6.2-15.49-21.27-15.49-21.27,0,0-15.87-86.14-18.38-105.71-2.56-19.91,30.8-22.8,33.7-2.04,1,5.9,2.33,13.56,3.72,21.54.08.44.15.88.23,1.32,1.64,9.36,3.33,19.04,4.68,26.69,1.53,8.71,2.6,14.79,2.6,14.79,1.53,12.26,32.17,9.19,31.15-4.08-.21-2.67-.54-5.76-.94-9.04l1.2-.15Z"/>
        <path class="cls-4" d="M142.05,75.87l-.3.06c-3.78-8.61-16.96-7.92-42.14-4.22-4.7.69-9.07,2.93-12.26,6.45-6.09,6.69-7.38,12.53-6.87,17.31l-1.2.15c-.32-2.57-.68-5.26-1.07-7.95-1.55-10.93-3.46-21.98-4.12-25.91-.92-7.8,23.7-21.77,32.06-2.34l2.16,7.96c-.47-3.12-1.21-5.76-2.16-7.96l-5.54-20.41,2.31-.63,28.59-5.78,1.93-.42c2.01,10.62,5.17,26.28,8.61,43.69Z"/>
        <path class="cls-4" d="M133.44,32.18l-1.93.42-28.59,5.78-2.31.63-2.73-10.06C90.69-.02,126.43-6.28,131.9,23.65c.38,2.26.9,5.14,1.54,8.53Z"/>
        <path class="cls-4" d="M80.22,104.66c1.02,13.27-29.62,16.34-31.15,4.08,0,0-1.07-6.08-2.6-14.79l.98-.18,28.6-5.79,2.16-.31c.39,2.69.75,5.38,1.07,7.95.4,3.28.73,6.37.94,9.04Z"/>
        <path class="cls-4" d="M78.21,87.67l-2.16.31-28.6,5.79-.98.18c-1.35-7.65-3.04-17.33-4.68-26.69-.08-.44-.15-.88-.23-1.32,0,0,12.11-18.73,32.53-4.18.66,3.93,2.57,14.98,4.12,25.91Z"/>
      </g>
      <g>
        <line class="cls-1" x1="47.45" y1="93.77" x2="76.05" y2="87.98"/>
        <line class="cls-2" x1="102.92" y1="38.38" x2="131.51" y2="32.6"/>
        <path class="cls-3" d="M106.15,59.42c-8.36-19.43-32.98-5.46-32.06,2.34.66,3.93,2.57,14.98,4.12,25.91.39,2.69.75,5.38,1.07,7.95.4,3.28.73,6.37.94,9.04,1.02,13.27-29.62,16.34-31.15,4.08,0,0-1.07-6.08-2.6-14.79-1.35-7.65-3.04-17.33-4.68-26.69-.08-.44-.15-.88-.23-1.32-1.39-7.98-2.72-15.64-3.72-21.54-2.9-20.76-36.26-17.87-33.7,2.04,2.51,19.57,18.38,105.71,18.38,105.71,0,0,1.58,15.07,15.49,21.27,5.93,2.65,101.79-10.89,101.79-10.89,0,0,18.38-1.7,9.87-47.32-2.47-13.2-5.11-26.73-7.62-39.34-3.44-17.41-6.6-33.07-8.61-43.69-.64-3.39-1.16-6.27-1.54-8.53C126.43-6.28,90.69-.02,97.88,28.95l2.73,10.06,5.54,20.41"/>
        <path class="cls-3" d="M106.15,59.42l2.16,7.96c-.47-3.12-1.21-5.76-2.16-7.96Z"/>
        <path class="cls-3" d="M94.52,144.15s-8.17-31.32,17.02-35.41c-15.73,2.84-29.92-2.46-31.06-13.27-.51-4.78.78-10.62,6.87-17.31,3.19-3.52,7.56-5.76,12.26-6.45,25.18-3.7,38.36-4.39,42.14,4.22"/>
        <path class="cls-3" d="M41.56,65.94s12.11-18.73,32.53-4.18"/>
      </g>
    </g>
    <circle class="cls-2" cx="62.6" cy="90.34" r="2.11"/>
  </g>
</svg>