<?xml version="1.0" encoding="UTF-8"?>
<svg id="Calque_2" data-name="Calque 2" xmlns="http://www.w3.org/2000/svg" viewBox="0 0 143.34 146.77">
  <defs>
    <style>
      .cls-1 {
        fill: #fff;
        stroke-width: 0px;
      }

      .cls-2 {
        stroke-width: 6px;
      }

      .cls-2, .cls-3 {
        fill: none;
        stroke: #000;
        stroke-linecap: round;
        stroke-linejoin: round;
      }

      .cls-3 {
        stroke-width: 8px;
      }
    </style>
  </defs>
  <g id="Calque_7" data-name="Calque 7">
    <g>
      <path class="cls-1" d="M100.85,61.55c25.53-11.23,44.09,1.02,36.94,38.47-5.64,13.91-102.47,55.06-108.43,39.15L4.51,72.78C.07,54.6,25.64,36.67,42.84,36.9c1.67.03,2.78-1.66,2.11-3.19-10.06-22.7,30.41-50.13,43.64-6.88,4.43,12.25,12.26,34.72,12.26,34.72Z"/>
      <g>
        <path class="cls-3" d="M29.36,139.17L4.51,72.78C.07,54.6,25.64,36.67,42.84,36.9c1.67.03,2.78-1.66,2.11-3.19-10.06-22.7,30.41-50.13,43.64-6.88,4.43,12.25,12.26,34.72,12.26,34.72,25.53-11.23,44.09,1.02,36.94,38.47-5.64,13.91-102.47,55.06-108.43,39.15Z"/>
        <path class="cls-2" d="M71.67,73.41c5.37,11.94-8.27,21.93-19.76,10.27,5.62,8.92-11.87,19.22-17.87,8.42,2.32,9.17-16.78,11.14-20.25,4.09"/>
      </g>
    </g>
  </g>
</svg>