<?xml version="1.0" encoding="UTF-8"?>
<svg id="Calque_2" data-name="Calque 2" xmlns="http://www.w3.org/2000/svg" viewBox="0 0 617.4 548.82">
  <defs>
    <style>
      .cls-1, .cls-2, .cls-3 {
        stroke-width: 0px;
      }

      .cls-2 {
        fill: #fff;
      }

      .cls-3 {
        fill: #ff0895;
      }

      .cls-4 {
        fill: none;
        stroke: #000;
        stroke-linecap: round;
        stroke-linejoin: round;
        stroke-width: 8px;
      }
    </style>
  </defs>
  <g id="Calque_3" data-name="Calque 3">
    <g>
      <g>
        <path class="cls-1" d="M370.58,175.39c0,7.85-1.73,15.1-4.64,20.99-3.7.13-7.33.96-10.66,2.9-4.57,2.67-7.58,6.95-9.6,11.7-12.97-.61-23.36-16.3-23.36-35.59s10.81-35.62,24.13-35.62,24.13,15.95,24.13,35.62Z"/>
        <path class="cls-1" d="M280.51,174.69c0,16.65-7.75,30.64-18.21,34.53-2.18-3.84-4.96-7.29-8.87-9.49-4.83-2.71-10.02-2.64-15.03-1.3-3.82-6.3-6.15-14.62-6.15-23.74,0-19.68,10.81-35.62,24.13-35.62s24.13,15.94,24.13,35.62Z"/>
        <path class="cls-3" d="M308.7,4l304.7,355.97-199.66-11.93-105.04,196.78-105.04-196.78-199.66,11.93L308.7,4ZM365.94,196.38c2.91-5.89,4.64-13.14,4.64-20.99,0-19.67-10.8-35.62-24.13-35.62s-24.13,15.95-24.13,35.62,10.39,34.98,23.36,35.59c2.02-4.75,5.03-9.03,9.6-11.7,3.33-1.94,6.96-2.77,10.66-2.9ZM262.3,209.22c10.46-3.89,18.21-17.88,18.21-34.53,0-19.68-10.8-35.62-24.13-35.62s-24.13,15.94-24.13,35.62c0,9.12,2.33,17.44,6.15,23.74,5.01-1.34,10.2-1.41,15.03,1.3,3.91,2.2,6.69,5.65,8.87,9.49Z"/>
      </g>
      <g>
        <polyline class="cls-4" points="308.7 4 4 359.97 203.66 348.04 308.7 544.82"/>
        <polyline class="cls-4" points="308.7 4 613.4 359.97 413.74 348.04 308.7 544.82"/>
        <path class="cls-4" d="M256.38,139.07c-13.32,0-24.13,15.94-24.13,35.62,0,9.12,2.33,17.44,6.15,23.74,5.01-1.34,10.2-1.41,15.03,1.3,3.91,2.2,6.69,5.65,8.87,9.49,10.46-3.89,18.21-17.88,18.21-34.53,0-19.68-10.8-35.62-24.13-35.62Z"/>
        <path class="cls-4" d="M355.28,199.28c3.33-1.94,6.96-2.77,10.66-2.9,2.91-5.89,4.64-13.14,4.64-20.99,0-19.67-10.8-35.62-24.13-35.62s-24.13,15.95-24.13,35.62,10.39,34.98,23.36,35.59c2.02-4.75,5.03-9.03,9.6-11.7Z"/>
      </g>
    </g>
    <ellipse class="cls-2" cx="356.25" cy="155.32" rx="5.36" ry="8.34"/>
    <ellipse class="cls-2" cx="266.98" cy="158.9" rx="5.79" ry="10.21"/>
  </g>
</svg>